<svg width="32.000000" height="32.000000" viewBox="0 0 32 32" fill="none" xmlns="http://www.w3.org/2000/svg" xmlns:xlink="http://www.w3.org/1999/xlink">
	<desc>
			Created with Pixso.
	</desc>
	<defs/>
	<rect id="Iconsax" width="32.000000" height="32.000000" fill="#FFFFFF" fill-opacity="0"/>
	<path id="Vector" d="M12.66 18.33C12.66 19.62 13.66 20.66 14.89 20.66L17.4 20.66C18.46 20.66 19.33 19.76 19.33 18.62C19.33 17.41 18.8 16.97 18.01 16.69L14 15.29C13.21 15.01 12.68 14.58 12.68 13.36C12.68 12.24 13.54 11.32 14.61 11.32L17.12 11.32C18.34 11.32 19.34 12.36 19.34 13.65M16 10L16 22" stroke="#1C1C1C" stroke-opacity="1.000000" stroke-width="1.500000" stroke-linejoin="round" stroke-linecap="round"/>
	<path id="Vector" d="M29.33 16C29.33 23.36 23.36 29.33 16 29.33C8.64 29.33 2.66 23.36 2.66 16C2.66 8.64 8.64 2.66 16 2.66" stroke="#1C1C1C" stroke-opacity="1.000000" stroke-width="1.500000" stroke-linejoin="round" stroke-linecap="round"/>
	<path id="Vector" d="M22.66 4L22.66 9.33L28 9.33M29.33 2.66L22.66 9.33" stroke="#1C1C1C" stroke-opacity="1.000000" stroke-width="1.500000" stroke-linejoin="round" stroke-linecap="round"/>
</svg>
