<svg width="18.750000" height="12.000000" viewBox="0 0 18.75 12" fill="none" xmlns="http://www.w3.org/2000/svg" xmlns:xlink="http://www.w3.org/1999/xlink">
	<desc>
			Created with Pixso.
	</desc>
	<defs/>
	<path id="Vector 647 (Stroke)" d="M10.43 2.41L18.75 0L16.67 8.4L14.09 5.92L9.93 10.26C9.78 10.41 9.59 10.5 9.39 10.5C9.18 10.5 8.99 10.41 8.84 10.26L5.79 7.08L1.29 11.76C1 12.06 0.52 12.07 0.23 11.79C-0.07 11.5 -0.08 11.02 0.2 10.73L5.24 5.48C5.39 5.33 5.58 5.25 5.79 5.25C5.99 5.25 6.18 5.33 6.33 5.48L9.39 8.66L13.01 4.89L10.43 2.41Z" fill="#219653" fill-opacity="1.000000" fill-rule="evenodd"/>
</svg>
