<svg width="18.750000" height="12.000000" viewBox="0 0 18.75 12" fill="none" xmlns="http://www.w3.org/2000/svg" xmlns:xlink="http://www.w3.org/1999/xlink">
	<desc>
			Created with Pixso.
	</desc>
	<defs/>
	<path id="Vector 647 (Stroke)" d="M18.51 0.2C18.81 0.49 18.82 0.97 18.54 1.26L13.5 6.51C13.35 6.66 13.16 6.75 12.96 6.75C12.75 6.75 12.56 6.66 12.41 6.51L9.36 3.33L5.73 7.1L8.31 9.58L0 12L2.07 3.59L4.65 6.07L8.81 1.73C8.96 1.58 9.15 1.5 9.36 1.5C9.56 1.5 9.75 1.58 9.9 1.73L12.96 4.91L17.45 0.23C17.74 -0.07 18.22 -0.08 18.51 0.2Z" fill="#FF4747" fill-opacity="1.000000" fill-rule="evenodd"/>
</svg>
